<svg width="427" height="287" viewBox="0 0 427 287" fill="none" xmlns="http://www.w3.org/2000/svg">
<g opacity="0.02">
<path d="M124.614 9.79999C115.547 10.3333 109.014 11.4 105.014 13C101.014 14.6 98.2141 17.6667 96.6141 22.2C95.2807 26.7333 94.6141 34.0666 94.6141 44.2V242.6C94.6141 252.733 95.2807 260.067 96.6141 264.6C98.2141 269.133 101.014 272.2 105.014 273.8C109.014 275.4 115.547 276.467 124.614 277V285C110.214 284.2 90.0807 283.8 64.2141 283.8C35.6807 283.8 14.6141 284.2 1.01406 285V277C9.81406 276.467 16.2141 275.4 20.2141 273.8C24.4807 272.2 27.2807 269.133 28.6141 264.6C30.2141 260.067 31.0141 252.733 31.0141 242.6V44.2C31.0141 34.0666 30.2141 26.7333 28.6141 22.2C27.2807 17.6667 24.4807 14.6 20.2141 13C16.2141 11.4 9.81406 10.3333 1.01406 9.79999V1.8C14.6141 2.59999 35.6807 2.99998 64.2141 2.99998C90.0807 2.99998 110.214 2.59999 124.614 1.8V9.79999ZM275.005 9.79999C265.938 10.3333 259.405 11.4 255.405 13C251.405 14.6 248.605 17.6667 247.005 22.2C245.671 26.7333 245.005 34.0666 245.005 44.2V242.6C245.005 252.733 245.671 260.067 247.005 264.6C248.605 269.133 251.405 272.2 255.405 273.8C259.405 275.4 265.938 276.467 275.005 277V285C260.605 284.2 240.471 283.8 214.605 283.8C186.071 283.8 165.005 284.2 151.405 285V277C160.205 276.467 166.605 275.4 170.605 273.8C174.871 272.2 177.671 269.133 179.005 264.6C180.605 260.067 181.405 252.733 181.405 242.6V44.2C181.405 34.0666 180.605 26.7333 179.005 22.2C177.671 17.6667 174.871 14.6 170.605 13C166.605 11.4 160.205 10.3333 151.405 9.79999V1.8C165.005 2.59999 186.071 2.99998 214.605 2.99998C240.471 2.99998 260.605 2.59999 275.005 1.8V9.79999ZM425.395 9.79999C416.329 10.3333 409.795 11.4 405.795 13C401.795 14.6 398.995 17.6667 397.395 22.2C396.062 26.7333 395.395 34.0666 395.395 44.2V242.6C395.395 252.733 396.062 260.067 397.395 264.6C398.995 269.133 401.795 272.2 405.795 273.8C409.795 275.4 416.329 276.467 425.395 277V285C410.995 284.2 390.862 283.8 364.995 283.8C336.462 283.8 315.395 284.2 301.795 285V277C310.595 276.467 316.995 275.4 320.995 273.8C325.262 272.2 328.062 269.133 329.395 264.6C330.995 260.067 331.795 252.733 331.795 242.6V44.2C331.795 34.0666 330.995 26.7333 329.395 22.2C328.062 17.6667 325.262 14.6 320.995 13C316.995 11.4 310.595 10.3333 301.795 9.79999V1.8C315.395 2.59999 336.462 2.99998 364.995 2.99998C390.862 2.99998 410.995 2.59999 425.395 1.8V9.79999Z" fill="white"/>
<path d="M124.614 9.79999L124.673 10.7983L125.614 10.7429V9.79999H124.614ZM105.014 13L105.385 13.9285L105.385 13.9285L105.014 13ZM96.6141 22.2L95.6711 21.8672L95.6622 21.8923L95.6547 21.9178L96.6141 22.2ZM96.6141 264.6L95.6547 264.882L95.6622 264.908L95.6711 264.933L96.6141 264.6ZM105.014 273.8L104.643 274.728L104.643 274.728L105.014 273.8ZM124.614 277H125.614V276.057L124.673 276.002L124.614 277ZM124.614 285L124.559 285.998L125.614 286.057V285H124.614ZM1.01406 285H0.0140632V286.061L1.07279 285.998L1.01406 285ZM1.01406 277L0.953568 276.002L0.0140632 276.059V277H1.01406ZM20.2141 273.8L19.8629 272.864L19.8528 272.867L19.8427 272.872L20.2141 273.8ZM28.6141 264.6L27.6711 264.267L27.6622 264.292L27.6547 264.318L28.6141 264.6ZM28.6141 22.2L27.6547 22.4822L27.6622 22.5077L27.6711 22.5328L28.6141 22.2ZM20.2141 13L19.8427 13.9285L19.8528 13.9325L19.8629 13.9363L20.2141 13ZM1.01406 9.79999H0.0140632V10.7412L0.953569 10.7982L1.01406 9.79999ZM1.01406 1.8L1.07278 0.801724L0.0140632 0.739447V1.8H1.01406ZM124.614 1.8H125.614V0.742901L124.559 0.801538L124.614 1.8ZM124.555 8.80172C115.473 9.33596 108.802 10.4078 104.643 12.0715L105.385 13.9285C109.226 12.3922 115.622 11.3307 124.673 10.7983L124.555 8.80172ZM104.643 12.0715C100.342 13.7916 97.3545 17.0974 95.6711 21.8672L97.5571 22.5328C99.0736 18.2359 101.686 15.4084 105.385 13.9285L104.643 12.0715ZM95.6547 21.9178C94.2781 26.5981 93.6141 34.0545 93.6141 44.2H95.6141C95.6141 34.0788 96.2833 26.8685 97.5734 22.4822L95.6547 21.9178ZM93.6141 44.2V242.6H95.6141V44.2H93.6141ZM93.6141 242.6C93.6141 252.746 94.2781 260.202 95.6547 264.882L97.5734 264.318C96.2833 259.931 95.6141 252.721 95.6141 242.6H93.6141ZM95.6711 264.933C97.3545 269.703 100.342 273.008 104.643 274.728L105.385 272.872C101.686 271.392 99.0736 268.564 97.5571 264.267L95.6711 264.933ZM104.643 274.728C108.802 276.392 115.473 277.464 124.555 277.998L124.673 276.002C115.622 275.469 109.226 274.408 105.385 272.872L104.643 274.728ZM123.614 277V285H125.614V277H123.614ZM124.67 284.002C110.242 283.2 90.0872 282.8 64.2141 282.8V284.8C90.0742 284.8 110.186 285.2 124.559 285.998L124.67 284.002ZM64.2141 282.8C35.6775 282.8 14.5863 283.2 0.955341 284.002L1.07279 285.998C14.6418 285.2 35.684 284.8 64.2141 284.8V282.8ZM2.01406 285V277H0.0140632V285H2.01406ZM1.07456 277.998C9.89384 277.464 16.4287 276.391 20.5855 274.728L19.8427 272.872C15.9994 274.409 9.73429 275.47 0.953568 276.002L1.07456 277.998ZM20.5652 274.736C25.1387 273.021 28.1553 269.704 29.5734 264.882L27.6547 264.318C26.4062 268.563 23.8228 271.379 19.8629 272.864L20.5652 274.736ZM29.5571 264.933C31.2173 260.229 32.0141 252.75 32.0141 242.6H30.0141C30.0141 252.717 29.2108 259.905 27.6711 264.267L29.5571 264.933ZM32.0141 242.6V44.2H30.0141V242.6H32.0141ZM32.0141 44.2C32.0141 34.0504 31.2173 26.5713 29.5571 21.8672L27.6711 22.5328C29.2108 26.8953 30.0141 34.0829 30.0141 44.2H32.0141ZM29.5734 21.9178C28.1553 17.096 25.1387 13.7787 20.5652 12.0637L19.8629 13.9363C23.8228 15.4213 26.4062 18.2373 27.6547 22.4822L29.5734 21.9178ZM20.5855 12.0715C16.4287 10.4088 9.89384 9.33632 1.07456 8.80182L0.953569 10.7982C9.73429 11.3303 15.9994 12.3912 19.8427 13.9285L20.5855 12.0715ZM2.01406 9.79999V1.8H0.0140632V9.79999H2.01406ZM0.955342 2.79827C14.5863 3.60008 35.6775 3.99998 64.2141 3.99998V1.99998C35.684 1.99998 14.6418 1.59989 1.07278 0.801724L0.955342 2.79827ZM64.2141 3.99998C90.0872 3.99998 110.242 3.59998 124.67 2.79846L124.559 0.801538C110.186 1.6 90.0742 1.99998 64.2141 1.99998V3.99998ZM123.614 1.8V9.79999H125.614V1.8H123.614ZM275.005 9.79999L275.063 10.7983L276.005 10.7429V9.79999H275.005ZM255.405 13L255.776 13.9285L255.776 13.9285L255.405 13ZM247.005 22.2L246.062 21.8672L246.053 21.8923L246.045 21.9178L247.005 22.2ZM247.005 264.6L246.045 264.882L246.053 264.908L246.062 264.933L247.005 264.6ZM255.405 273.8L255.033 274.728L255.033 274.728L255.405 273.8ZM275.005 277H276.005V276.057L275.063 276.002L275.005 277ZM275.005 285L274.949 285.998L276.005 286.057V285H275.005ZM151.405 285H150.405V286.061L151.463 285.998L151.405 285ZM151.405 277L151.344 276.002L150.405 276.059V277H151.405ZM170.605 273.8L170.254 272.864L170.243 272.867L170.233 272.872L170.605 273.8ZM179.005 264.6L178.062 264.267L178.053 264.292L178.045 264.318L179.005 264.6ZM179.005 22.2L178.045 22.4822L178.053 22.5077L178.062 22.5328L179.005 22.2ZM170.605 13L170.233 13.9285L170.243 13.9325L170.254 13.9363L170.605 13ZM151.405 9.79999H150.405V10.7412L151.344 10.7982L151.405 9.79999ZM151.405 1.8L151.463 0.801724L150.405 0.739447V1.8H151.405ZM275.005 1.8H276.005V0.742901L274.949 0.801538L275.005 1.8ZM274.946 8.80172C265.864 9.33596 259.193 10.4078 255.033 12.0715L255.776 13.9285C259.617 12.3922 266.012 11.3307 275.063 10.7983L274.946 8.80172ZM255.033 12.0715C250.733 13.7916 247.745 17.0974 246.062 21.8672L247.948 22.5328C249.464 18.2359 252.076 15.4084 255.776 13.9285L255.033 12.0715ZM246.045 21.9178C244.669 26.5981 244.005 34.0545 244.005 44.2H246.005C246.005 34.0788 246.674 26.8685 247.964 22.4822L246.045 21.9178ZM244.005 44.2V242.6H246.005V44.2H244.005ZM244.005 242.6C244.005 252.746 244.669 260.202 246.045 264.882L247.964 264.318C246.674 259.931 246.005 252.721 246.005 242.6H244.005ZM246.062 264.933C247.745 269.703 250.733 273.008 255.033 274.728L255.776 272.872C252.076 271.392 249.464 268.564 247.948 264.267L246.062 264.933ZM255.033 274.728C259.193 276.392 265.864 277.464 274.946 277.998L275.063 276.002C266.012 275.469 259.617 274.408 255.776 272.872L255.033 274.728ZM274.005 277V285H276.005V277H274.005ZM275.06 284.002C260.633 283.2 240.478 282.8 214.605 282.8V284.8C240.465 284.8 260.577 285.2 274.949 285.998L275.06 284.002ZM214.605 282.8C186.068 282.8 164.977 283.2 151.346 284.002L151.463 285.998C165.032 285.2 186.075 284.8 214.605 284.8V282.8ZM152.405 285V277H150.405V285H152.405ZM151.465 277.998C160.284 277.464 166.819 276.391 170.976 274.728L170.233 272.872C166.39 274.409 160.125 275.47 151.344 276.002L151.465 277.998ZM170.956 274.736C175.529 273.021 178.546 269.704 179.964 264.882L178.045 264.318C176.797 268.563 174.213 271.379 170.254 272.864L170.956 274.736ZM179.948 264.933C181.608 260.229 182.405 252.75 182.405 242.6H180.405C180.405 252.717 179.601 259.905 178.062 264.267L179.948 264.933ZM182.405 242.6V44.2H180.405V242.6H182.405ZM182.405 44.2C182.405 34.0504 181.608 26.5713 179.948 21.8672L178.062 22.5328C179.601 26.8953 180.405 34.0829 180.405 44.2H182.405ZM179.964 21.9178C178.546 17.096 175.529 13.7787 170.956 12.0637L170.254 13.9363C174.213 15.4213 176.797 18.2373 178.045 22.4822L179.964 21.9178ZM170.976 12.0715C166.819 10.4088 160.284 9.33632 151.465 8.80182L151.344 10.7982C160.125 11.3303 166.39 12.3912 170.233 13.9285L170.976 12.0715ZM152.405 9.79999V1.8H150.405V9.79999H152.405ZM151.346 2.79827C164.977 3.60008 186.068 3.99998 214.605 3.99998V1.99998C186.075 1.99998 165.032 1.59989 151.463 0.801724L151.346 2.79827ZM214.605 3.99998C240.478 3.99998 260.633 3.59998 275.06 2.79846L274.949 0.801538C260.577 1.6 240.465 1.99998 214.605 1.99998V3.99998ZM274.005 1.8V9.79999H276.005V1.8H274.005ZM425.395 9.79999L425.454 10.7983L426.395 10.7429V9.79999H425.395ZM405.795 13L406.167 13.9285L406.167 13.9285L405.795 13ZM397.395 22.2L396.452 21.8672L396.443 21.8923L396.436 21.9178L397.395 22.2ZM397.395 264.6L396.436 264.882L396.443 264.908L396.452 264.933L397.395 264.6ZM405.795 273.8L405.424 274.728L405.424 274.728L405.795 273.8ZM425.395 277H426.395V276.057L425.454 276.002L425.395 277ZM425.395 285L425.34 285.998L426.395 286.057V285H425.395ZM301.795 285H300.795V286.061L301.854 285.998L301.795 285ZM301.795 277L301.735 276.002L300.795 276.059V277H301.795ZM320.995 273.8L320.644 272.864L320.634 272.867L320.624 272.872L320.995 273.8ZM329.395 264.6L328.452 264.267L328.443 264.292L328.436 264.318L329.395 264.6ZM329.395 22.2L328.436 22.4822L328.443 22.5077L328.452 22.5328L329.395 22.2ZM320.995 13L320.624 13.9285L320.634 13.9325L320.644 13.9363L320.995 13ZM301.795 9.79999H300.795V10.7412L301.735 10.7982L301.795 9.79999ZM301.795 1.8L301.854 0.801724L300.795 0.739447V1.8H301.795ZM425.395 1.8H426.395V0.742901L425.34 0.801538L425.395 1.8ZM425.337 8.80172C416.254 9.33596 409.583 10.4078 405.424 12.0715L406.167 13.9285C410.007 12.3922 416.403 11.3307 425.454 10.7983L425.337 8.80172ZM405.424 12.0715C401.124 13.7916 398.136 17.0974 396.452 21.8672L398.338 22.5328C399.855 18.2359 402.467 15.4084 406.167 13.9285L405.424 12.0715ZM396.436 21.9178C395.059 26.5981 394.395 34.0545 394.395 44.2H396.395C396.395 34.0788 397.065 26.8685 398.355 22.4822L396.436 21.9178ZM394.395 44.2V242.6H396.395V44.2H394.395ZM394.395 242.6C394.395 252.746 395.059 260.202 396.436 264.882L398.355 264.318C397.065 259.931 396.395 252.721 396.395 242.6H394.395ZM396.452 264.933C398.136 269.703 401.124 273.008 405.424 274.728L406.167 272.872C402.467 271.392 399.855 268.564 398.338 264.267L396.452 264.933ZM405.424 274.728C409.583 276.392 416.254 277.464 425.337 277.998L425.454 276.002C416.403 275.469 410.007 274.408 406.167 272.872L405.424 274.728ZM424.395 277V285H426.395V277H424.395ZM425.451 284.002C411.023 283.2 390.868 282.8 364.995 282.8V284.8C390.855 284.8 410.967 285.2 425.34 285.998L425.451 284.002ZM364.995 282.8C336.459 282.8 315.368 283.2 301.737 284.002L301.854 285.998C315.423 285.2 336.465 284.8 364.995 284.8V282.8ZM302.795 285V277H300.795V285H302.795ZM301.856 277.998C310.675 277.464 317.21 276.391 321.367 274.728L320.624 272.872C316.781 274.409 310.516 275.47 301.735 276.002L301.856 277.998ZM321.346 274.736C325.92 273.021 328.937 269.704 330.355 264.882L328.436 264.318C327.187 268.563 324.604 271.379 320.644 272.864L321.346 274.736ZM330.338 264.933C331.999 260.229 332.795 252.75 332.795 242.6H330.795C330.795 252.717 329.992 259.905 328.452 264.267L330.338 264.933ZM332.795 242.6V44.2H330.795V242.6H332.795ZM332.795 44.2C332.795 34.0504 331.999 26.5713 330.338 21.8672L328.452 22.5328C329.992 26.8953 330.795 34.0829 330.795 44.2H332.795ZM330.355 21.9178C328.937 17.096 325.92 13.7787 321.346 12.0637L320.644 13.9363C324.604 15.4213 327.187 18.2373 328.436 22.4822L330.355 21.9178ZM321.367 12.0715C317.21 10.4088 310.675 9.33632 301.856 8.80182L301.735 10.7982C310.516 11.3303 316.781 12.3912 320.624 13.9285L321.367 12.0715ZM302.795 9.79999V1.8H300.795V9.79999H302.795ZM301.737 2.79827C315.368 3.60008 336.459 3.99998 364.995 3.99998V1.99998C336.465 1.99998 315.423 1.59989 301.854 0.801724L301.737 2.79827ZM364.995 3.99998C390.868 3.99998 411.023 3.59998 425.451 2.79846L425.34 0.801538C410.967 1.6 390.855 1.99998 364.995 1.99998V3.99998ZM424.395 1.8V9.79999H426.395V1.8H424.395Z" fill="black"/>
</g>
</svg>
