<svg width="277" height="285" viewBox="0 0 277 285" fill="none" xmlns="http://www.w3.org/2000/svg">
<path opacity="0.02" d="M246.206 1.99998C258.473 1.99998 268.606 1.59999 276.606 0.799998V8.79999C269.94 11.2 263.406 16.2667 257.006 24C250.606 31.7333 244.873 42.5333 239.806 56.4L155.406 284.8C152.473 284.533 147.806 284.4 141.406 284.4C135.273 284.4 130.74 284.533 127.806 284.8L25.8063 34.4C22.3396 25.6 18.3396 19.2 13.8063 15.2C9.27292 11.2 4.87292 9.06665 0.60625 8.79999V0.799998C16.6063 1.59999 36.8729 1.99998 61.4063 1.99998C88.8729 1.99998 109.14 1.59999 122.206 0.799998V8.79999C112.073 9.33332 104.873 10.5333 100.606 12.4C96.3396 14.2667 94.2063 18 94.2063 23.6C94.2063 28.1333 95.8063 34.4 99.0063 42.4L169.406 221.6L218.606 88.8C226.073 68.2667 229.806 52 229.806 40C229.806 29.3333 226.873 21.6 221.006 16.8C215.406 12 207.14 9.33332 196.206 8.79999V0.799998C214.34 1.59999 231.006 1.99998 246.206 1.99998Z" fill="white"/>
</svg>
